<svg width="353" height="108" viewBox="0 0 353 108" fill="none" xmlns="http://www.w3.org/2000/svg">
<path d="M33.1614 0.519993C37.4014 0.599997 42.0814 0.879998 47.2014 1.36C52.3214 1.84 57.2814 2.83999 62.0814 4.35999L60.6414 19C57.1214 18.92 52.8014 18.84 47.6814 18.76C42.6414 18.68 37.6814 18.64 32.8014 18.64C30.9614 18.64 29.4014 18.72 28.1214 18.88C26.9214 18.96 25.9214 19.2 25.1214 19.6C24.4014 19.92 23.8814 20.44 23.5614 21.16C23.2414 21.8 23.0814 22.72 23.0814 23.92C23.0814 25.84 23.6414 27.32 24.7614 28.36C25.9614 29.32 28.0414 30.32 31.0014 31.36L46.4814 37.12C53.2014 39.76 57.8814 43.04 60.5214 46.96C63.2414 50.8 64.6014 55.8 64.6014 61.96C64.6014 66.6 64.0414 70.52 62.9214 73.72C61.8014 76.92 59.9614 79.44 57.4014 81.28C54.9214 83.12 51.6014 84.48 47.4414 85.36C43.3614 86.24 38.2814 86.68 32.2014 86.68C29.4014 86.68 25.2814 86.48 19.8414 86.08C14.4814 85.68 8.40141 84.64 1.60141 82.96L2.92141 67.12C7.72141 67.2 11.9614 67.32 15.6414 67.48C19.4014 67.56 22.6414 67.64 25.3614 67.72C28.1614 67.72 30.3614 67.72 31.9614 67.72C34.6814 67.72 36.7614 67.6 38.2014 67.36C39.6414 67.04 40.6414 66.52 41.2014 65.8C41.7614 65 42.0414 63.88 42.0414 62.44C42.0414 61.08 41.8414 60 41.4414 59.2C41.0414 58.4 40.3214 57.72 39.2814 57.16C38.3214 56.6 37.0014 56.04 35.3214 55.48L18.7614 48.88C12.2014 46.16 7.56141 42.92 4.84141 39.16C2.12141 35.4 0.761407 30.48 0.761407 24.4C0.761407 19.6 1.36141 15.68 2.56141 12.64C3.76141 9.6 5.60141 7.2 8.08141 5.43999C10.6414 3.67999 14.0014 2.43999 18.1614 1.72C22.3214 0.919995 27.3214 0.519993 33.1614 0.519993ZM104.397 23.68C112.237 23.68 118.517 24.72 123.237 26.8C127.957 28.8 131.357 32.12 133.437 36.76C135.517 41.32 136.557 47.48 136.557 55.24C136.557 62.92 135.517 69.04 133.437 73.6C131.357 78.08 127.957 81.36 123.237 83.44C118.517 85.44 112.237 86.44 104.397 86.44C96.5573 86.44 90.2773 85.44 85.5573 83.44C80.8373 81.36 77.4373 78.08 75.3573 73.6C73.2773 69.04 72.2373 62.92 72.2373 55.24C72.2373 47.48 73.2773 41.32 75.3573 36.76C77.4373 32.12 80.8373 28.8 85.5573 26.8C90.2773 24.72 96.5573 23.68 104.397 23.68ZM104.397 38.92C101.917 38.92 99.9973 39.36 98.6373 40.24C97.3573 41.12 96.4373 42.72 95.8773 45.04C95.3173 47.36 95.0373 50.76 95.0373 55.24C95.0373 59.64 95.3173 63 95.8773 65.32C96.4373 67.64 97.3573 69.24 98.6373 70.12C99.9973 70.92 101.917 71.32 104.397 71.32C106.877 71.32 108.797 70.92 110.157 70.12C111.517 69.24 112.437 67.64 112.917 65.32C113.477 63 113.757 59.64 113.757 55.24C113.757 50.76 113.477 47.36 112.917 45.04C112.437 42.72 111.517 41.12 110.157 40.24C108.797 39.36 106.877 38.92 104.397 38.92ZM190.748 23.68C202.268 23.68 208.028 29.24 208.028 40.36V85H186.188V47.2C186.188 45.28 185.788 43.96 184.988 43.24C184.268 42.52 182.948 42.16 181.028 42.16C179.028 42.16 176.868 42.44 174.548 43C172.308 43.56 169.468 44.6 166.028 46.12L164.948 34.84C169.108 31.16 173.388 28.4 177.788 26.56C182.188 24.64 186.508 23.68 190.748 23.68ZM163.748 25.36L166.388 37.36L168.308 38.92V85H146.468V25.36H163.748ZM247.904 23.68C255.184 23.68 260.944 24.32 265.184 25.6C269.504 26.88 272.584 28.88 274.424 31.6C276.344 34.32 277.304 38 277.304 42.64C277.304 47.2 276.384 50.88 274.544 53.68C272.704 56.4 269.584 58.4 265.184 59.68C260.864 60.88 255.064 61.48 247.784 61.48C240.584 61.48 234.784 60.88 230.384 59.68C226.064 58.4 222.944 56.4 221.024 53.68C219.104 50.88 218.144 47.2 218.144 42.64C218.144 38.08 219.104 34.44 221.024 31.72C223.024 28.92 226.184 26.88 230.504 25.6C234.904 24.32 240.704 23.68 247.904 23.68ZM247.784 36.16C244.184 36.16 241.704 36.64 240.344 37.6C239.064 38.48 238.424 40.16 238.424 42.64C238.424 45.12 239.064 46.84 240.344 47.8C241.704 48.68 244.184 49.12 247.784 49.12C251.464 49.12 253.944 48.68 255.224 47.8C256.504 46.84 257.144 45.12 257.144 42.64C257.144 40.16 256.504 38.48 255.224 37.6C253.944 36.64 251.464 36.16 247.784 36.16ZM284.144 25.36L283.064 33.76L266.744 36.28L262.304 25.36H284.144ZM229.304 58L239.624 59.8C238.664 60.2 237.944 61 237.464 62.2C237.064 63.32 237.184 64.44 237.824 65.56C238.464 66.6 239.744 67.2 241.664 67.36L263.504 69.28C270.144 69.84 274.824 71.64 277.544 74.68C280.344 77.64 281.744 81.96 281.744 87.64C281.744 93 280.624 97.08 278.384 99.88C276.144 102.76 272.584 104.72 267.704 105.76C262.904 106.8 256.544 107.32 248.624 107.32C241.824 107.32 236.264 107 231.944 106.36C227.704 105.72 224.384 104.72 221.984 103.36C219.584 102.08 217.904 100.32 216.944 98.08C216.064 95.92 215.624 93.24 215.624 90.04C215.624 87.56 216.064 85.4 216.944 83.56C217.904 81.72 219.584 80.08 221.984 78.64C224.464 77.2 227.864 75.88 232.184 74.68L241.784 72.04L249.224 74.8L244.904 77.44C242.664 79.04 240.904 80.28 239.624 81.16C238.344 82.04 237.424 82.88 236.864 83.68C236.304 84.4 236.024 85.48 236.024 86.92C236.024 88.36 236.384 89.44 237.104 90.16C237.824 90.96 239.064 91.48 240.824 91.72C242.664 92.04 245.144 92.2 248.264 92.2C251.704 92.2 254.344 92.04 256.184 91.72C258.104 91.48 259.424 91 260.144 90.28C260.944 89.64 261.344 88.68 261.344 87.4C261.344 86.12 261.024 85.2 260.384 84.64C259.744 84.08 258.704 83.68 257.264 83.44C255.904 83.12 254.064 82.84 251.744 82.6L234.344 81.04C231.064 80.72 228.424 79.84 226.424 78.4C224.504 76.96 223.184 75.24 222.464 73.24C221.744 71.16 221.544 69.08 221.864 67C222.184 64.92 222.984 63.08 224.264 61.48C225.624 59.8 227.304 58.64 229.304 58ZM326.834 18.28L351.674 18.4L313.874 68.92L289.034 68.8L326.834 18.28ZM352.754 68.8V85H289.034V68.8H352.754ZM351.674 2.19999V18.4H290.114V2.19999H351.674Z" fill="url(#paint0_linear_501_111)"/>
<defs>
<linearGradient id="paint0_linear_501_111" x1="-4" y1="-35" x2="357" y2="109" gradientUnits="userSpaceOnUse">
<stop stop-color="#85459B" stop-opacity="0.5"/>
<stop offset="0.479167" stop-color="#8924CA" stop-opacity="0.75"/>
<stop offset="1" stop-color="#8F00FF"/>
</linearGradient>
</defs>
</svg>
